<svg xmlns="http://www.w3.org/2000/svg" viewBox="0 0 627.77 149.96"><defs><style>.cls-1{fill:#fff;}</style></defs><title>Asset 3</title><g id="Layer_2" data-name="Layer 2"><g id="Layer_1-2" data-name="Layer 1"><path class="cls-1" d="M99.58,20.13Q120,35.21,120,74.87q0,39.07-19.63,55.06t-52.83,16H0V5.05H45.13Q79.13,5.05,99.58,20.13ZM41.69,34.4v82.17H50q9.72,0,15.59-3.85t8.7-12.85q2.84-9,2.83-25,0-15.78-2.93-24.59T65.37,37.94Q59.51,34.4,50.19,34.4Z"/><path class="cls-1" d="M236.6,20.23,218.18,41.88Q204,30.55,188,30.55q-7.49,0-11.33,2.63a8.53,8.53,0,0,0-3.85,7.49,8.49,8.49,0,0,0,2.13,6A19.61,19.61,0,0,0,182.05,51q5,2,16.09,5.67,22.26,7.08,32.08,17.81T240,103.82a41.22,41.22,0,0,1-7.19,24q-7.18,10.42-20.54,16.29T180.74,150q-18.63,0-32.79-5.87a74.16,74.16,0,0,1-23.88-15.38l20.44-22.46q16,13.75,34.61,13.76,8.7,0,13.15-3.54a11.22,11.22,0,0,0,4.46-9.21,12.38,12.38,0,0,0-1.93-7.09q-1.92-2.82-6.78-5.26a95.74,95.74,0,0,0-14.17-5.26q-24.48-7.7-34.2-18.52t-9.72-27A37.73,37.73,0,0,1,137,21.24a45.33,45.33,0,0,1,19.53-15,71.49,71.49,0,0,1,28-5.26Q216.77,1,236.6,20.23Z"/><path class="cls-1" d="M297.39,11.7q5.67,4.34,5.67,12.91,0,9.15-5.91,13.6t-15.71,4.45h-7V63.15h-7.69V7.37h14.65Q291.72,7.37,297.39,11.7Zm-6,22.3q3.52-2.58,3.52-9.31,0-6-3.52-8.66t-10.08-2.67H274.4V36.59h6.72Q287.84,36.59,291.36,34Z"/><path class="cls-1" d="M315.32,61.65a9.55,9.55,0,0,1-2.39-6.92V3.32l7.45-.89V54.56a4.35,4.35,0,0,0,.61,2.6,2.4,2.4,0,0,0,2.06.81,7.46,7.46,0,0,0,2.76-.49l1.94,5.18a12.15,12.15,0,0,1-5.91,1.46A8.67,8.67,0,0,1,315.32,61.65Z"/><path class="cls-1" d="M366.69,57a5.37,5.37,0,0,0,2.67,1.91l-1.7,5.18a11.4,11.4,0,0,1-5.34-1.86,8.59,8.59,0,0,1-3-4.54q-4.29,6.41-12.71,6.4-6.32,0-10-3.56A12.44,12.44,0,0,1,333,51.25q0-6.81,4.9-10.45t13.88-3.64h6.56V34q0-4.53-2.19-6.48t-6.72-1.94A37.59,37.59,0,0,0,338,27.85l-1.86-5.42a42.79,42.79,0,0,1,14.73-2.92q7.53,0,11.26,3.68t3.72,10.49V53.19A6.6,6.6,0,0,0,366.69,57Zm-8.34-5.14V42.1h-5.59q-11.82,0-11.82,8.74c0,2.54.62,4.45,1.87,5.75a7.28,7.28,0,0,0,5.5,1.94Q354.7,58.53,358.35,51.89Z"/><path class="cls-1" d="M400.53,20.72a23.74,23.74,0,0,1,6.64,3.65L404,29.06a25.93,25.93,0,0,0-5.55-2.75,17.24,17.24,0,0,0-5.54-.89,9.74,9.74,0,0,0-5.75,1.5,4.76,4.76,0,0,0-2.1,4.09,4.74,4.74,0,0,0,2,4c1.32,1,3.71,1.92,7.16,2.84,4.75,1.19,8.3,2.8,10.65,4.86a10.58,10.58,0,0,1,3.52,8.42,10.9,10.9,0,0,1-4.9,9.63,20.78,20.78,0,0,1-11.94,3.32q-9.71,0-16.11-5.59l4-4.53a19.33,19.33,0,0,0,12,4.13,11.4,11.4,0,0,0,6.68-1.74,5.49,5.49,0,0,0,2.47-4.74,6.27,6.27,0,0,0-.89-3.52,7.31,7.31,0,0,0-3.08-2.35,42.46,42.46,0,0,0-6.39-2.14q-6.81-1.78-9.84-4.78a10.25,10.25,0,0,1-3-7.61,9.94,9.94,0,0,1,2-6,12.82,12.82,0,0,1,5.5-4.21,20,20,0,0,1,7.9-1.5A24,24,0,0,1,400.53,20.72Z"/><path class="cls-1" d="M440.44,61.2a16.34,16.34,0,0,1-9.55,2.92q-5.43,0-8.46-3.12c-2-2.08-3-5.08-3-9V26.23h-7.45V20.48h7.45V10.85l7.45-.89V20.48H437l-.81,5.75h-9.31V51.65A7.87,7.87,0,0,0,428,56.47a4.69,4.69,0,0,0,3.93,1.5,10.78,10.78,0,0,0,5.67-1.87Z"/><path class="cls-1" d="M479.38,44.36h-27.2q.48,7.05,3.56,10.37a10.35,10.35,0,0,0,7.94,3.32,17.4,17.4,0,0,0,5.66-.89,23,23,0,0,0,5.43-2.84L478,58.77a23.54,23.54,0,0,1-14.89,5.35q-8.91,0-13.89-5.83t-5-16a30.37,30.37,0,0,1,2.14-11.78,18.44,18.44,0,0,1,6.15-8A15.58,15.58,0,0,1,462,19.51q8.49,0,13,5.59t4.53,15.46C479.54,41.8,479.49,43.07,479.38,44.36Zm-7.2-6q0-6.32-2.51-9.63t-7.53-3.32q-9.15,0-10,13.44h20Z"/><path class="cls-1" d="M514.6,20l-1.38,7.28a15.57,15.57,0,0,0-3.72-.48,7.92,7.92,0,0,0-6.4,2.91q-2.43,2.91-3.81,9.07V63.15h-7.44V20.48h6.39l.73,8.66a16.12,16.12,0,0,1,4.62-7.2,10.29,10.29,0,0,1,6.8-2.43A17.06,17.06,0,0,1,514.6,20Z"/><path class="cls-1" d="M530.54,1.46A4.94,4.94,0,0,1,532,5.1a4.8,4.8,0,0,1-1.46,3.6,5.2,5.2,0,0,1-3.8,1.42A5.09,5.09,0,0,1,523,8.7a4.76,4.76,0,0,1-1.46-3.6A4.9,4.9,0,0,1,523,1.46,5,5,0,0,1,526.74,0,5.15,5.15,0,0,1,530.54,1.46Zm0,61.69H523.1V20.48h7.44Z"/><path class="cls-1" d="M575.11,23q3.28,3.48,3.28,9.56v30.6h-7.45V33.6c0-3-.56-5.16-1.7-6.4a6.45,6.45,0,0,0-5-1.86,9.76,9.76,0,0,0-6,1.94,20.22,20.22,0,0,0-4.86,5.59V63.15h-7.44V20.48h6.39L553,26.8a16.89,16.89,0,0,1,5.63-5.35,14.55,14.55,0,0,1,7.4-1.94Q571.84,19.51,575.11,23Z"/><path class="cls-1" d="M627.77,22.43a22.77,22.77,0,0,1-5.34,1.05c-1.94.16-4.32.24-7.12.24q7.53,3.41,7.53,10.77a13.58,13.58,0,0,1-4.38,10.44q-4.37,4.05-11.9,4a17.54,17.54,0,0,1-5.42-.81,4.56,4.56,0,0,0-1.54,1.74,4.77,4.77,0,0,0-.57,2.23c0,2.32,1.87,3.48,5.59,3.48h6.8A17.83,17.83,0,0,1,619,57.16a12.26,12.26,0,0,1,5.14,4.21A10.47,10.47,0,0,1,626,67.44a10.82,10.82,0,0,1-5.1,9.59q-5.1,3.36-14.89,3.36A33.51,33.51,0,0,1,595.11,79a10.31,10.31,0,0,1-5.71-4.25,14,14,0,0,1-1.7-7.28h6.72a7.46,7.46,0,0,0,1,4.09,6.1,6.1,0,0,0,3.48,2.26,25.65,25.65,0,0,0,7.13.77c4.48,0,7.67-.55,9.59-1.66a5.37,5.37,0,0,0,2.87-5,5.12,5.12,0,0,0-2.26-4.53,11.2,11.2,0,0,0-6.32-1.54h-6.72q-5.42,0-8.21-2.31a7.16,7.16,0,0,1-2.8-5.78,7.51,7.51,0,0,1,1.22-4,11.76,11.76,0,0,1,3.48-3.48,13.38,13.38,0,0,1-5.47-4.82,13.29,13.29,0,0,1-1.74-7,14.1,14.1,0,0,1,2.15-7.69,14.63,14.63,0,0,1,5.91-5.31,18.41,18.41,0,0,1,8.38-1.9,61,61,0,0,0,8.42-.36,28.8,28.8,0,0,0,5.62-1.22q2.24-.76,5.47-2.22Zm-28.21,5.06a10.1,10.1,0,0,0-2.31,6.92,10.1,10.1,0,0,0,2.35,7A8.46,8.46,0,0,0,606.24,44a8.56,8.56,0,0,0,6.68-2.55q2.31-2.55,2.31-7.16,0-9.48-9.15-9.48A8.2,8.2,0,0,0,599.56,27.49Z"/><path class="cls-1" d="M290,88.93a26.07,26.07,0,0,1,7.69,4.9l-4.21,4.69a23.94,23.94,0,0,0-6.19-3.68,18,18,0,0,0-6.52-1.17,12.08,12.08,0,0,0-7.2,2,6.81,6.81,0,0,0-2.84,5.91,8,8,0,0,0,1,4.09,8.58,8.58,0,0,0,3.6,3,47.06,47.06,0,0,0,7.65,2.91,49.86,49.86,0,0,1,8.74,3.48,15.21,15.21,0,0,1,5.63,5.14,14.88,14.88,0,0,1,2.14,8.3,15.54,15.54,0,0,1-2.38,8.58,16,16,0,0,1-6.88,5.83,25,25,0,0,1-10.65,2.11q-11.58,0-18.95-7.21l4.3-4.78a24.79,24.79,0,0,0,6.8,4.25,20.33,20.33,0,0,0,7.77,1.42,13.92,13.92,0,0,0,8.58-2.55,8.68,8.68,0,0,0,3.4-7.41,9,9,0,0,0-1.05-4.57,9.42,9.42,0,0,0-3.61-3.28,36.82,36.82,0,0,0-7.4-2.91q-8.58-2.6-12.55-6.24a12.73,12.73,0,0,1-4-9.87,13.15,13.15,0,0,1,2.23-7.53,14.72,14.72,0,0,1,6.23-5.18,21.25,21.25,0,0,1,9.11-1.87A25.87,25.87,0,0,1,290,88.93Z"/><path class="cls-1" d="M340.42,106.46q5,6,5,16.27a28.37,28.37,0,0,1-2.27,11.7,17.77,17.77,0,0,1-6.56,7.85,18.22,18.22,0,0,1-10.2,2.8q-9,0-14-6t-5-16.28a28.43,28.43,0,0,1,2.26-11.7,17.77,17.77,0,0,1,6.56-7.85,18.45,18.45,0,0,1,10.28-2.79Q335.44,100.47,340.42,106.46Zm-25.06,16.35q0,16.27,11,16.28t11-16.36q0-16.28-10.93-16.27Q315.37,106.46,315.36,122.81Z"/><path class="cls-1" d="M359.69,142.61a9.54,9.54,0,0,1-2.39-6.93V84.28l7.45-.89v52.13a4.39,4.39,0,0,0,.6,2.59,2.44,2.44,0,0,0,2.07.81,7.45,7.45,0,0,0,2.75-.48l1.94,5.18a12.15,12.15,0,0,1-5.91,1.46A8.65,8.65,0,0,1,359.69,142.61Z"/><path class="cls-1" d="M413.16,144.1h-6.4l-.56-6.63a16.28,16.28,0,0,1-5.59,5.78,15.09,15.09,0,0,1-7.69,1.83q-5.58,0-8.74-3.4T381,132v-30.6h7.45v29.79c0,2.92.51,5,1.53,6.2s2.7,1.82,5,1.82q6.24,0,10.69-7.37V101.44h7.45Z"/><path class="cls-1" d="M450.07,142.16a16.39,16.39,0,0,1-9.55,2.92q-5.41,0-8.46-3.12t-3-9V107.19h-7.45v-5.75H429V91.81l7.44-.89v10.52h10.12l-.81,5.75h-9.31v25.42c0,2.21.39,3.82,1.18,4.82a4.68,4.68,0,0,0,3.92,1.49,10.85,10.85,0,0,0,5.67-1.86Z"/><path class="cls-1" d="M465.21,82.42a4.94,4.94,0,0,1,1.46,3.64,4.82,4.82,0,0,1-1.46,3.6,5.2,5.2,0,0,1-3.8,1.42,5.13,5.13,0,0,1-3.73-1.42,4.81,4.81,0,0,1-1.45-3.6,4.93,4.93,0,0,1,1.45-3.64A5,5,0,0,1,461.41,81,5.11,5.11,0,0,1,465.21,82.42Zm0,61.68h-7.45V101.44h7.45Z"/><path class="cls-1" d="M510.59,106.46q5,6,5,16.27a28.37,28.37,0,0,1-2.27,11.7,17.77,17.77,0,0,1-6.56,7.85,18.22,18.22,0,0,1-10.2,2.8q-9,0-14-6t-5-16.28a28.27,28.27,0,0,1,2.27-11.7,17.75,17.75,0,0,1,6.55-7.85,18.46,18.46,0,0,1,10.29-2.79Q505.62,100.47,510.59,106.46Zm-25.06,16.35q0,16.27,11,16.28t11-16.36q0-16.28-10.92-16.27Q485.53,106.46,485.53,122.81Z"/><path class="cls-1" d="M557.06,104q3.29,3.48,3.28,9.55v30.6h-7.45V114.55q0-4.53-1.7-6.39a6.46,6.46,0,0,0-5-1.86,9.68,9.68,0,0,0-6,1.94,20.22,20.22,0,0,0-4.86,5.59V144.1h-7.44V101.44h6.39l.65,6.31a16.93,16.93,0,0,1,5.62-5.34,14.59,14.59,0,0,1,7.41-1.94Q553.79,100.47,557.06,104Z"/><path class="cls-1" d="M594.74,101.68a23.6,23.6,0,0,1,6.64,3.65L598.23,110a25.92,25.92,0,0,0-5.55-2.75,17.26,17.26,0,0,0-5.55-.89,9.73,9.73,0,0,0-5.74,1.5,5.06,5.06,0,0,0-.13,8.13,23.27,23.27,0,0,0,7.17,2.84q7.13,1.77,10.65,4.85a10.63,10.63,0,0,1,3.52,8.42,11,11,0,0,1-4.9,9.64,20.83,20.83,0,0,1-11.94,3.32q-9.72,0-16.11-5.59l4-4.53a19.38,19.38,0,0,0,12,4.13,11.35,11.35,0,0,0,6.68-1.75,5.49,5.49,0,0,0,2.46-4.73,6.19,6.19,0,0,0-.89-3.52,7.13,7.13,0,0,0-3.07-2.35,42.08,42.08,0,0,0-6.4-2.15c-4.53-1.18-7.81-2.78-9.83-4.77a10.23,10.23,0,0,1-3-7.61,10,10,0,0,1,2-6A12.91,12.91,0,0,1,579,102a20,20,0,0,1,7.89-1.5A23.7,23.7,0,0,1,594.74,101.68Z"/></g></g></svg>